# xmcd
#
# Track frame offsets: 
#        150
#        20352
#        54802
#        80272
#        114792
#        138935
#        155664
#        178376
#        199084
#        223841
#        243346
#        260372
#        275387
#        299296
#
# Disc length: 4351 seconds
#
# Revision: 3
# Processed by: cddbd v1.5.2PL0 Copyright (c) Steve Scherf et al.
# Submitted via: ExactAudioCopy v0.95b4
#
DISCID=c310fd0e
DTITLE=Various Artist - Buddha Bar 2 [CD1: Dinner)
DYEAR=2000
DGENRE=Electronic
TTITLE0=Trumpet Thing - Need You (Right Now) (Ambient Mix)
TTITLE1=Omar Faruk Tekbilek - I Love You
TTITLE2=Consuelo Luz - Los Biblicos (The Nightingales)
TTITLE3=Karunesh - Alibaba
TTITLE4=Deepak Chopra Feat. Demi Moore - Desire
TTITLE5=Govinda - In Through Time
TTITLE6=Oliver Shanti and Friends - Onon Mweng (Rainbird)
TTITLE7=Atman - Spirit
TTITLE8=Deadbeats - Funky For You
TTITLE9=De-Phazz Feat. Pat Appleton - Mambo Craze
TTITLE10=Nino - Amor Amor
TTITLE11=Sa Trincha - Smell Of Paradise
TTITLE12=Intro - Farruca
TTITLE13=Funky Lowlives - Nata Bossa
EXTD=YEAR: 2000
EXTT0=
EXTT1=
EXTT2=
EXTT3=
EXTT4=
EXTT5=
EXTT6=
EXTT7=
EXTT8=
EXTT9=
EXTT10=
EXTT11=
EXTT12=
EXTT13=
PLAYORDER=
